<svg width="124" height="17" viewBox="0 0 124 17" fill="none" xmlns="http://www.w3.org/2000/svg">
<path d="M11.1353 1.18534V4.35876H4.87346V15.6924H0.935024V1.18534H11.1353ZM12.6033 15.6924V1.18534H23.0586V4.35876H16.5418V6.85215H22.5203V10.0256H16.5418V12.519H23.0303V15.6924H12.6033ZM39.0656 8.43886C39.0656 10.0539 38.7516 11.4163 38.1235 12.5261C37.4954 13.6311 36.6478 14.4693 35.5805 15.0407C34.5133 15.6074 33.3232 15.8907 32.0104 15.8907C30.6882 15.8907 29.4934 15.605 28.4262 15.0336C27.3636 14.4575 26.5183 13.6169 25.8903 12.5119C25.2669 11.4021 24.9552 10.0445 24.9552 8.43886C24.9552 6.82382 25.2669 5.46379 25.8903 4.35876C26.5183 3.24901 27.3636 2.41079 28.4262 1.84411C29.4934 1.2727 30.6882 0.987003 32.0104 0.987003C33.3232 0.987003 34.5133 1.2727 35.5805 1.84411C36.6478 2.41079 37.4954 3.24901 38.1235 4.35876C38.7516 5.46379 39.0656 6.82382 39.0656 8.43886ZM35.0138 8.43886C35.0138 7.56995 34.8981 6.83799 34.6667 6.24297C34.4401 5.64323 34.1024 5.18989 33.6538 4.88294C33.2099 4.57126 32.6621 4.41542 32.0104 4.41542C31.3587 4.41542 30.8086 4.57126 30.36 4.88294C29.9161 5.18989 29.5784 5.64323 29.347 6.24297C29.1203 6.83799 29.007 7.56995 29.007 8.43886C29.007 9.30777 29.1203 10.0421 29.347 10.6418C29.5784 11.2369 29.9161 11.6902 30.36 12.0019C30.8086 12.3088 31.3587 12.4623 32.0104 12.4623C32.6621 12.4623 33.2099 12.3088 33.6538 12.0019C34.1024 11.6902 34.4401 11.2369 34.6667 10.6418C34.8981 10.0421 35.0138 9.30777 35.0138 8.43886Z" fill="#84CC16"/>
<path d="M51.0881 1.18534V4.35876H44.8263V15.6924H40.8878V1.18534H51.0881ZM52.5561 15.6924V1.18534H58.818C59.8947 1.18534 60.8368 1.39785 61.6443 1.82286C62.4518 2.24787 63.0799 2.84525 63.5285 3.61499C63.9771 4.38473 64.2014 5.28434 64.2014 6.31381C64.2014 7.35272 63.9701 8.25233 63.5073 9.01263C63.0492 9.77292 62.4046 10.3585 61.5735 10.7693C60.7471 11.1802 59.7813 11.3856 58.6763 11.3856H54.9362V8.32553H57.883C58.3457 8.32553 58.7401 8.24525 59.0659 8.08469C59.3965 7.9194 59.6491 7.68565 59.8238 7.38342C60.0033 7.08119 60.093 6.72465 60.093 6.31381C60.093 5.89824 60.0033 5.54406 59.8238 5.25128C59.6491 4.95377 59.3965 4.7271 59.0659 4.57126C58.7401 4.4107 58.3457 4.33042 57.883 4.33042H56.4946V15.6924H52.5561ZM67.6033 15.6924H63.3532L68.1417 1.18534H73.5251L78.3136 15.6924H74.0635L70.8901 5.18044H70.7767L67.6033 15.6924ZM66.81 9.9689H74.8002V12.9156H66.81V9.9689ZM85.2625 2.63038H89.1443C90.3626 2.63038 91.4417 2.8783 92.3814 3.37415C93.3259 3.86999 94.065 4.57362 94.5986 5.48504C95.1369 6.39645 95.4061 7.4755 95.4061 8.7222C95.4061 9.90279 95.1369 10.9252 94.5986 11.7894C94.065 12.6536 93.3259 13.3218 92.3814 13.794C91.4417 14.2662 90.3626 14.5024 89.1443 14.5024H85.2625C84.0347 14.5024 82.9462 14.2686 81.997 13.8011C81.0525 13.3336 80.3111 12.6654 79.7728 11.7964C79.2392 10.9275 78.9724 9.89334 78.9724 8.69387C78.9724 7.44717 79.2439 6.37048 79.787 5.46378C80.3347 4.55709 81.0809 3.85819 82.0253 3.36706C82.9745 2.87594 84.0536 2.63038 85.2625 2.63038ZM85.2625 5.86046C84.7714 5.86046 84.318 5.95255 83.9025 6.13672C83.4916 6.32089 83.1611 6.62076 82.9108 7.03633C82.6652 7.45189 82.5424 8.00441 82.5424 8.69387C82.5424 9.32666 82.6699 9.83195 82.925 10.2097C83.1847 10.5875 83.52 10.8591 83.9308 11.0243C84.3464 11.1896 84.7903 11.2723 85.2625 11.2723H89.1726C89.6543 11.2723 90.0935 11.1873 90.4901 11.0173C90.8915 10.8425 91.2103 10.5686 91.4464 10.1956C91.6873 9.81779 91.8077 9.32666 91.8077 8.7222C91.8077 8.03274 91.6873 7.47787 91.4464 7.05758C91.2103 6.63729 90.8915 6.3327 90.4901 6.1438C90.0935 5.95491 89.6543 5.86046 89.1726 5.86046H85.2625ZM89.0309 0.930335V16.2874H85.3475V0.930335H89.0309ZM97.223 1.18534H101.161V8.77887H101.275L106.432 1.18534H109.775V15.6924H105.837V8.07052H105.752L100.51 15.6924H97.223V1.18534ZM123.623 15.6924H119.685V4.33042H118.296C117.838 4.33042 117.444 4.39417 117.114 4.52168C116.783 4.64446 116.528 4.83807 116.349 5.10253C116.174 5.36226 116.086 5.6999 116.086 6.11547C116.086 6.52631 116.174 6.85924 116.349 7.11424C116.528 7.36925 116.783 7.55578 117.114 7.67384C117.444 7.78718 117.838 7.84385 118.296 7.84385H121.243V10.9039H117.503C116.403 10.9039 115.437 10.7221 114.606 10.3585C113.775 9.99487 113.128 9.45653 112.665 8.74345C112.207 8.03038 111.978 7.15438 111.978 6.11547C111.978 5.086 112.202 4.20292 112.651 3.46623C113.1 2.72955 113.728 2.16523 114.535 1.77327C115.347 1.38132 116.289 1.18534 117.361 1.18534H123.623V15.6924ZM115.123 9.03388H119.317L115.775 15.6924H111.496L115.123 9.03388Z" fill="#365314"/>
</svg>
